<svg height="5.40401in" viewBox="0 0 800 389" width="11.1136in" xmlns="http://www.w3.org/2000/svg"><path d="m30 237s26-43 51-68c33-40 52-61 81-104 49-73 2-30-16 16-15 66 52-5 26 61-7 31-27 52-39 47-7.09-4.43 26-30 55-15 18 4 44 73-11 161-26 36-48 47-42-18 11-56 74-134 87-146 66-73-14 48 29 15 32-19-2 28 78-38m47-38s-23 45-23 58m23-99c60-51 121-62 77-11-23 29 15 30 27 53 12 18-13 61-38 77-60 26-8-63 50-21 18 13 53-1 99-30 127-91 0-39-25 2-38 43-29 88 89 53 23-7 94-34 121-31" fill="none" stroke="#000" stroke-linecap="round" stroke-width="10"/></svg>